# xmcd
#
# Track frame offsets: 
#        150
#        12847
#        26110
#        38427
#        47670
#        59160
#        70650
#        86677
#        99257
#        114547
#        126215
#        140157
#
# Disc length: 2005 seconds
#
# Revision: 4
# Processed by: cddbd v1.5.2PL0 Copyright (c) Steve Scherf et al.
# Submitted via: ExactAudioCopy v0.95b4
#
DISCID=a207d30c
DTITLE=Various Artist - Touch This Country
DYEAR=1995
DGENRE=
TTITLE0=David Houston - My Elusive Dreams
TTITLE1=Margo Smith - Don't Break the Heart That Loves You
TTITLE2=Johnny Cash - Folsom Prison Blues
TTITLE3=Faron Young - Hello Walls
TTITLE4=George Jones - Window Up Above
TTITLE5=Patsy Cline - Walking After Midnight
TTITLE6=Johnny Lee - Looking For Love
TTITLE7=Jack Blanchard and Misty Morgan - Tennessee Birdwalk
TTITLE8=Cal Smith - It's Time to Pay the Fiddler
TTITLE9=Donna Fargo - The Happiest Girl in the Whole USA
TTITLE10=Jeannie Seely - Don't Touch Me
TTITLE11=Georgie Hamilton - Abilene
EXTD=
EXTT0=
EXTT1=
EXTT2=
EXTT3=
EXTT4=
EXTT5=
EXTT6=
EXTT7=
EXTT8=
EXTT9=
EXTT10=
EXTT11=
PLAYORDER=
